<?xml version="1.0" encoding="utf-8"?>
<!-- Generator: Adobe Illustrator 25.2.0, SVG Export Plug-In . SVG Version: 6.00 Build 0)  -->
<svg version="1.1" id="Layer_1" xmlns="http://www.w3.org/2000/svg" xmlns:xlink="http://www.w3.org/1999/xlink" x="0px" y="0px"
	 viewBox="0 0 640 480" style="enable-background:new 0 0 640 480;" xml:space="preserve">
<style type="text/css">
	.st0{fill:#FFDB6E;}
</style>
<ellipse class="st0" cx="320" cy="240" rx="165.6" ry="154.7"/>
<path class="st0" d="M590,246.3c-29,1-58,1.2-87,0.6c-6.4-0.1-6.4,9.9,0,10c29,0.6,58,0.4,87-0.6C596.4,256,596.5,246,590,246.3z"/>
<path class="st0" d="M314,13v51c0,6.4,10,6.4,10,0V13C324,6.6,314,6.6,314,13z"/>
<path class="st0" d="M320.8,419c-0.2-6.4-10.2-6.4-10,0l1.4,54c0.2,6.4,10.2,6.4,10,0L320.8,419z"/>
<path class="st0" d="M124,208.8c-24.6,2.5-49.3,3.7-74,3.3c-6.4-0.1-6.4,9.9,0,10c24.7,0.3,49.4-0.8,74-3.3
	C130.3,218.1,130.4,208.1,124,208.8z"/>
<path class="st0" d="M568.9,62.5c-25.8,23.2-52.6,45.4-80.2,66.5c-5,3.9-0.1,12.5,5,8.6c28.2-21.5,55.4-44.1,81.8-67.7
	C573.3,67.6,571.1,65.1,568.9,62.5z"/>
<path class="st0" d="M148.5,370.5c-18.7,15.9-38.6,30.2-59.6,42.9c0,0.2,0,0.4,0,0.6v11c23.5-13.8,45.8-29.7,66.6-47.4
	C160.5,373.4,153.4,366.4,148.5,370.5z"/>
<path class="st0" d="M183.8,86.1c-25.2-19.9-51-38.9-77.4-57c-0.9,3.3-2.8,6.1-5.1,8.6c25.8,17.7,50.9,36.2,75.5,55.5
	C181.8,97.1,188.9,90.1,183.8,86.1z"/>
<path class="st0" d="M534.3,423.6c-25.7-17.5-50.1-36.7-73.3-57.5c-4.8-4.3-11.9,2.8-7.1,7.1c23.9,21.5,49.3,41.4,75.9,59.5
	C531,429.5,532.6,426.5,534.3,423.6z"/>
</svg>
