<?xml version="1.0" encoding="utf-8"?>
<!-- Generator: Adobe Illustrator 24.2.1, SVG Export Plug-In . SVG Version: 6.00 Build 0)  -->
<svg version="1.1" id="Layer_1" xmlns="http://www.w3.org/2000/svg" xmlns:xlink="http://www.w3.org/1999/xlink" x="0px" y="0px"
	 viewBox="0 0 503.8 503.8" style="enable-background:new 0 0 503.8 503.8;" xml:space="preserve">
<style type="text/css">
	.st0{fill:#FFE079;}
</style>
<path class="st0" d="M251.9,124.1c70.8,0,128,57.2,128,128s-57.2,128-128,128s-128-57.2-128-128S181.1,124.1,251.9,124.1"/>
<path d="M149.5,503.8c-0.9,0-0.9,0-1.7,0c-1.7-0.9-2.6-2.6-2.6-4.3c0-0.9,0-0.9,0-1.7l14.5-35c0.9-2.6,3.4-3.4,6-2.6
	c1.7,0.9,2.6,2.6,2.6,4.3c0,0.9,0,0.9,0,1.7l-14.5,35C152.9,502.9,151.2,503.8,149.5,503.8z M354.3,502.9c-1.7,0-3.4-0.9-4.3-2.6
	l-14.5-34.1c0-0.9,0-0.9,0-1.7c0-1.7,0.9-3.4,2.6-4.3c2.6-0.9,4.3,0,6,2.6l14.5,34.1c0,0.9,0,0.9,0,1.7c0,1.7-0.9,3.4-2.6,4.3
	C355.1,502.9,355.1,502.9,354.3,502.9z M251.9,486.7c-2.6,0-4.3-1.7-4.3-4.3v-68.3c0-2.6,1.7-4.3,4.3-4.3s4.3,1.7,4.3,4.3v68.3
	C256.2,485,254.5,486.7,251.9,486.7z M327,437.2c-1.7,0-3.4-0.9-4.3-2.6l-12.8-31.6c0-0.9,0-0.9,0-1.7c0-1.7,0.9-3.4,2.6-4.3
	c2.6-0.9,4.3,0,6,2.6l12.8,31.6c0,0.9,0,0.9,0,1.7c0,1.7-0.9,3.4-2.6,4.3C327.8,437.2,327.8,437.2,327,437.2z M176.8,437.2
	c-0.9,0-0.9,0-1.7,0c-1.7-0.9-2.6-2.6-2.6-4.3c0-0.9,0-0.9,0-1.7l12.8-31.6c0.9-2.6,3.4-3.4,6-2.6c1.7,0.9,2.6,2.6,2.6,4.3
	c0,0.9,0,0.9,0,1.7l-12.8,31.6C180.2,436.4,178.5,437.2,176.8,437.2z M92.3,420.2c-0.9,0-2.6,0-3.4-0.9s-0.9-1.7-0.9-3.4
	s0-2.6,0.9-3.4l48.6-48.6c1.7-1.7,4.3-1.7,6,0c0.9,0.9,0.9,1.7,0.9,3.4s0,2.6-0.9,3.4l-48.6,48.6C94,420.2,93.2,420.2,92.3,420.2z
	 M417.4,420.2c-0.9,0-2.6,0-3.4-0.9l-48.6-48.6c-0.9-0.9-0.9-1.7-0.9-3.4s0-2.6,0.9-3.4c1.7-1.7,4.3-1.7,6,0l48.6,48.6
	c0.9,0.9,0.9,1.7,0.9,3.4s0,2.6-0.9,3.4C419.1,420.2,419.1,420.2,417.4,420.2z M251.9,384.3c-72.5,0-132.3-59.7-132.3-132.3
	s59.7-132.3,132.3-132.3s132.3,59.7,132.3,132.3S324.4,384.3,251.9,384.3z M251.9,128.3c-68.3,0-123.7,55.5-123.7,123.7
	s55.5,123.7,123.7,123.7s123.7-55.5,123.7-123.7S320.2,128.3,251.9,128.3z M499.4,358.7c-0.9,0-0.9,0-1.7,0l-35-14.5
	c-1.7-0.9-2.6-2.6-2.6-4.3c0-0.9,0-0.9,0-1.7c0.9-2.6,3.4-3.4,6-2.6l35,14.5c1.7,0.9,2.6,2.6,2.6,4.3c0,0.9,0,0.9,0,1.7
	C502.8,357.9,501.1,358.7,499.4,358.7z M4.4,358.7c-1.7,0-3.4-0.9-4.3-2.6c0-0.9,0-0.9,0-1.7c0-1.7,0.9-3.4,2.6-4.3l35-14.5
	c2.6-0.9,4.3,0,6,2.6c0,0.9,0,0.9,0,1.7c0,1.7-0.9,3.4-2.6,4.3l-35,14.5C5.3,358.7,5.3,358.7,4.4,358.7z M432.8,331.4
	c-0.9,0-0.9,0-1.7,0l-31.6-12.8c-1.7-0.9-2.6-2.6-2.6-4.3c0-0.9,0-0.9,0-1.7c0.9-2.6,3.4-3.4,6-2.6l31.6,12.8
	c1.7,0.9,2.6,2.6,2.6,4.3c0,0.9,0,0.9,0,1.7C436.2,330.6,434.5,331.4,432.8,331.4z M71,331.4c-1.7,0-3.4-0.9-4.3-2.6
	c0-0.9,0-0.9,0-1.7c0-1.7,0.9-3.4,2.6-4.3l31.6-12.8c2.6-0.9,4.3,0,6,2.6c0,0.9,0,0.9,0,1.7c0,1.7-0.9,3.4-2.6,4.3l-31.6,12.8
	C71.8,331.4,71,331.4,71,331.4z M482.3,256.3H414c-2.6,0-4.3-1.7-4.3-4.3s1.7-4.3,4.3-4.3h68.3c2.6,0,4.3,1.7,4.3,4.3
	S484.9,256.3,482.3,256.3z M89.8,256.3H21.5c-2.6,0-4.3-1.7-4.3-4.3s1.7-4.3,4.3-4.3h68.3c2.6,0,4.3,1.7,4.3,4.3
	S92.3,256.3,89.8,256.3z M335.5,213.7c-1.7,0-3.4-0.9-3.4-2.6c-6.8-13.7-17.9-25.6-30.7-35c-1.7-1.7-2.6-4.3-0.9-6
	c1.7-1.7,4.3-2.6,6-0.9c14.5,9.4,26.5,22.2,34.1,37.5c0.9,1.7,0,4.3-1.7,6C337.2,213.7,336.4,213.7,335.5,213.7z M101.7,194
	c-0.9,0-0.9,0-1.7,0l-31.6-12.8c-1.7-0.9-2.6-2.6-2.6-4.3c0-0.9,0-0.9,0-1.7c0.9-2.6,3.4-3.4,6-2.6l31.6,12.8
	c1.7,0.9,2.6,2.6,2.6,4.3c0,0.9,0,0.9,0,1.7C105.1,193.2,103.4,194,101.7,194z M402.1,194c-1.7,0-3.4-0.9-4.3-2.6c0-0.9,0-0.9,0-1.7
	c0-1.7,0.9-3.4,2.6-4.3l31.6-12.8c2.6-0.9,4.3,0,6,2.6c0,0.9,0,0.9,0,1.7c0,1.7-0.9,3.4-2.6,4.3L403.8,194
	C402.9,194,402.1,194,402.1,194z M464.4,168.4c-1.7,0-3.4-0.9-4.3-2.6c0-0.9,0-0.9,0-1.7c0-1.7,0.9-3.4,2.6-4.3l35-14.5
	c2.6-0.9,4.3,0,6,2.6c0,0.9,0,0.9,0,1.7c0,1.7-0.9,3.4-2.6,4.3l-35,14.5C466.1,168.4,465.2,168.4,464.4,168.4z M39.4,168.4
	c-0.9,0-0.9,0-1.7,0l-35-14.5c-1.7-0.9-2.6-2.6-2.6-4.3c0-0.9,0-0.9,0-1.7c0.9-2.6,3.4-3.4,6-2.6l35,14.5c1.7,0.9,2.6,2.6,2.6,4.3
	c0,0.9,0,0.9,0,1.7C42,167.6,41.1,168.4,39.4,168.4z M369.7,142.8c-0.9,0-2.6,0-3.4-0.9s-0.9-1.7-0.9-3.4s0-2.6,0.9-3.4l41.8-41.8
	c1.7-1.7,4.3-1.7,6,0c0.9,0.9,0.9,1.7,0.9,3.4c0,1.7,0,2.6-0.9,3.4L372.2,142C371.4,142.8,370.5,142.8,369.7,142.8z M140.1,142.8
	c-0.9,0-2.6,0-3.4-0.9L88.1,93.3c-0.9-0.9-0.9-1.7-0.9-3.4s0-2.6,0.9-3.4c1.7-1.7,4.3-1.7,6,0l48.6,48.6c0.9,0.9,0.9,1.7,0.9,3.4
	s0,2.6-0.9,3.4C141.8,142.8,141,142.8,140.1,142.8z M189.6,106.1c-1.7,0-3.4-0.9-4.3-2.6L172.5,72c0-0.9,0-0.9,0-1.7
	c0-1.7,0.9-3.4,2.6-4.3c2.6-0.9,4.3,0,6,2.6l12.8,31.6c0,0.9,0,0.9,0,1.7c0,1.7-0.9,3.4-2.6,4.3
	C191.3,106.1,190.5,106.1,189.6,106.1z M314.2,106.1c-0.9,0-0.9,0-1.7,0c-1.7-0.9-2.6-2.6-2.6-4.3c0-0.9,0-0.9,0-1.7l12.8-31.6
	c0.9-2.6,3.4-3.4,6-2.6c1.7,0.9,2.6,2.6,2.6,4.3c0,0.9,0,0.9,0,1.7l-12.8,31.6C317.6,105.3,315.9,106.1,314.2,106.1z M251.9,94.2
	c-2.6,0-4.3-1.7-4.3-4.3V30.2c0-2.6,1.7-4.3,4.3-4.3s4.3,1.7,4.3,4.3v59.7C256.2,92.5,254.5,94.2,251.9,94.2z M164,43.8
	c-1.7,0-3.4-0.9-4.3-2.6l-14.5-35c0-0.9,0-0.9,0-1.7c0-1.7,0.9-3.4,2.6-4.3c2.6-0.9,4.3,0,6,2.6l14.5,35c0,0.9,0,0.9,0,1.7
	c0,1.7-0.9,3.4-2.6,4.3C164.9,43,164,43.8,164,43.8z M339.8,43.8c-0.9,0-0.9,0-1.7,0c-1.7-0.9-2.6-2.6-2.6-4.3c0-0.9,0-0.9,0-1.7
	l14.5-35c0.9-2.6,3.4-3.4,6-2.6c1.7,0.9,2.6,2.6,2.6,4.3c0,0.9,0,0.9,0,1.7l-14.5,35C343.2,42.1,341.5,43.8,339.8,43.8z"/>
</svg>
