<?xml version="1.0" encoding="utf-8"?>
<!-- Generator: Adobe Illustrator 25.2.0, SVG Export Plug-In . SVG Version: 6.00 Build 0)  -->
<svg version="1.1" id="Layer_1" xmlns="http://www.w3.org/2000/svg" xmlns:xlink="http://www.w3.org/1999/xlink" x="0px" y="0px"
	 viewBox="0 0 640 480" style="enable-background:new 0 0 640 480;" xml:space="preserve">
<style type="text/css">
	.st0{fill:none;stroke:#000000;stroke-miterlimit:10;}
	.st1{fill:#CCCCCC;}
	.st2{fill:#CCCCCC;stroke:#000000;stroke-width:3;stroke-linecap:round;stroke-linejoin:round;stroke-miterlimit:10;}
	.st3{fill:none;stroke:#000000;stroke-width:3;stroke-linecap:round;stroke-linejoin:round;stroke-miterlimit:10;}
	.st4{fill:none;}
</style>
<g>
	<g>
		<path class="st0" d="M581.5,99.9"/>
	</g>
</g>
<g>
	<circle class="st1" cx="303" cy="256" r="169"/>
	<path d="M472,256c0,22.1-3.9,44.3-11.8,65.1c-7.8,20.8-19.9,40.3-35.6,56.5c-2,2-4,3.9-6.1,5.9c-2.1,1.8-4.3,3.7-6.4,5.5l-6.7,5.2
		c-2.3,1.6-4.6,3.3-6.9,4.9c-9.4,6.3-19.3,11.6-29.7,15.9C348,423.6,325.5,428,303,428c-22.5,0-45-4.4-65.8-13.1
		c-20.8-8.6-39.9-21.4-55.8-37.3c-15.9-15.9-28.7-35-37.3-55.8C135.4,301,131,278.5,131,256c0-22.5,4.4-45,13.1-65.8
		c8.6-20.8,21.4-39.9,37.3-55.8c15.9-15.9,35-28.7,55.8-37.3C258,88.4,280.5,84,303,84c22.5,0,45,4.4,65.8,13.1
		c10.4,4.3,20.4,9.7,29.7,15.9c2.3,1.6,4.6,3.2,6.9,4.9c2.2,1.7,4.4,3.5,6.7,5.2c2.2,1.8,4.3,3.6,6.4,5.5c2.1,1.9,4.1,3.9,6.1,5.9
		c15.6,16.2,27.7,35.7,35.6,56.5C468.1,211.7,472,233.9,472,256z M472,256l-0.2-8.3c-0.2-2.8-0.4-5.5-0.6-8.3
		c-0.3-2.7-0.7-5.5-1.1-8.2c-0.4-2.7-1-5.4-1.5-8.1c-2.3-10.8-5.8-21.3-10.4-31.3c-9.1-20-22.1-38.1-37.7-53.1c-2-1.9-4-3.7-5.9-5.6
		l-6.1-5.4c-2.1-1.7-4.2-3.4-6.4-5c-2.2-1.6-4.4-3.2-6.7-4.7c-9-6-18.7-11.2-28.7-15.4C346.5,94.3,324.7,90,303,90
		c-21.7,0-43.5,4.3-63.5,12.6c-20.1,8.3-38.5,20.6-53.8,36c-15.4,15.4-27.7,33.8-36,53.8c-8.3,20.1-12.6,41.8-12.6,63.5
		c0,21.7,4.3,43.5,12.6,63.5c8.3,20.1,20.6,38.5,36,53.8c15.4,15.4,33.8,27.7,53.8,36c20.1,8.3,41.8,12.6,63.5,12.6
		c21.7,0,43.5-4.3,63.5-12.6c10-4.2,19.7-9.3,28.7-15.4c2.3-1.5,4.4-3.1,6.7-4.7c2.2-1.6,4.3-3.4,6.4-5l6.1-5.4
		c2-1.9,3.9-3.7,5.9-5.6c15.6-15.1,28.7-33.1,37.7-53.1l1.6-3.8c0.5-1.3,1.1-2.5,1.6-3.8l1.4-3.9c0.5-1.3,1-2.6,1.4-3.9
		c0.8-2.6,1.7-5.3,2.4-7.9l1-4c0.3-1.3,0.7-2.7,1-4c0.5-2.7,1.1-5.4,1.5-8.1c0.4-2.7,0.8-5.5,1.1-8.2c0.2-2.8,0.5-5.5,0.6-8.3
		L472,256z"/>
</g>
<ellipse class="st2" cx="298.4" cy="206.6" rx="25.5" ry="23.6"/>
<ellipse class="st2" cx="204" cy="305.6" rx="27" ry="42.3"/>
<ellipse class="st2" cx="341.1" cy="367.9" rx="42.7" ry="31.7"/>
<ellipse class="st2" cx="223.6" cy="155.9" rx="23.3" ry="27.1"/>
<path class="st3" d="M297.2,276.7c-0.9,5.6-1.3,12.6,3.6,15.5c2.9,1.7,6.7,1.2,9.5-0.7c2.8-1.9,4.7-4.8,6.2-7.8"/>
<path class="st3" d="M357.7,155.2c6.3,4.6,13.7,7.6,21.4,9c8.7,1.5,18.2,0.5,25.5-4.6c0.4-0.2,0.8-0.6,0.7-1c-0.1-0.4-0.9-0.5-0.8,0
	"/>
<path class="st3" d="M176.9,197.5c0,6.7,0,13.3,0,20c0,1.1,0,2.2,0.5,3.2c0.5,0.9,1.5,1.5,2.5,2.1c7.7,4.3,16.4,6.7,25.2,6.9"/>
<path class="st3" d="M447.2,341.9c-3.3-0.5-5.9-3.1-7.4-6.1s-2-6.3-2.8-9.6c-2.3-10-6.9-20-5.7-30.2c1.1-9.4,7-17.4,12.9-24.8
	c5.5-6.8,11.7-13.8,20.1-16.2"/>
<path class="st3" d="M374.4,234.2c-3.9,10.9-6.5,23.8-0.3,33.7c1.8,2.8,4.3,5.3,7.1,7c9.6,5.8,22.7,3.2,31-4.3
	c8.3-7.5,12.3-18.9,13.1-30c0.4-5.9-0.4-12.8-5.3-16.2c-1.6-1.1-3.5-1.7-5.4-2c-6.4-1-13.2,1.7-17.2,6.8"/>
<path class="st4" d="M394.1,83.7c-0.6-0.6-1.3-1.2-1.4-2.1c-0.1-0.8,0.4-1.5,0.8-2.2c11-16.3,20.9-33.4,29.7-51.1
	c5.1,10.3,10.3,20.5,15.4,30.8c1.6,3.1,3.1,6.3,3.6,9.8c0.8,5.8-1.6,11.4-3.7,16.7c-2,5-3.5,10.1-6.7,14.4c-2.3,3.1-5.6,6.2-9.7,6.3
	c-5.1,0.1-8.8-4.5-12.2-7.7C404.7,93.6,399.4,88.6,394.1,83.7z"/>
<path class="st4" d="M503.6,47.9c0,0.3,0,0.5,0,0.8"/>
<path class="st4" d="M648.6,101.9c0,0.3,0,0.5,0,0.8"/>
</svg>
