<?xml version="1.0" encoding="utf-8"?>
<!-- Generator: Adobe Illustrator 25.0.0, SVG Export Plug-In . SVG Version: 6.00 Build 0)  -->
<svg version="1.1" id="Layer_1" xmlns="http://www.w3.org/2000/svg" xmlns:xlink="http://www.w3.org/1999/xlink" x="0px" y="0px"
	 viewBox="0 0 503.8 503.8" style="enable-background:new 0 0 503.8 503.8;" xml:space="preserve">
<style type="text/css">
	.st0{fill:#2C576D;stroke:#000000;stroke-width:11;stroke-linejoin:round;stroke-miterlimit:10;}
	.st1{fill:none;stroke:#000000;stroke-width:5;stroke-linejoin:round;stroke-miterlimit:10;}
	.st2{fill:#FFFFFF;stroke:#FFFFFF;stroke-width:14;stroke-linecap:round;stroke-linejoin:round;stroke-miterlimit:10;}
</style>
<path class="st0" d="M297,135c-6,1.7-51.8,15.2-70,60c-17,41.9-3.4,95.4,36,121c39.2,25.4,83.4,10,89,8c-38,50.4-104.2,67.5-157,43
	c-43.6-20.3-71.9-66.1-71.1-114.9c0.9-55,41.9-90.2,50.1-96.9c7.7-6.4,14.3-10.2,16-11.2C230.6,120.6,276.2,129.4,297,135z"/>
<path d="M161.8,170.6c0.7-0.1,0.7-0.1,1.4-0.3c10.4,1.6,18.4,9.2,20.3,19.2c2.4,12.8-6.9,25.7-20.2,28.1c-10.5,2-20.8-2.4-26.1-11.1
	c-1.1-1.9-0.6-3.4,1.4-4.4c2-1,3.5-0.7,4.6,1.3c4,6.2,11.3,9.7,19,8.3c9.8-1.8,16.1-10.7,14.4-20.1c-1.4-7.4-7.4-12.6-14.9-14
	c-2.3-0.3-3.3-2.2-2.9-3.6C159,171.7,160.3,170.9,161.8,170.6z"/>
<circle class="st1" cx="159" cy="279.7" r="17.3"/>
<path class="st0" d="M-116,29"/>
<path d="M195.5,327.2c-0.3-0.5-0.3-0.5-0.6-1c-2-8.3,1.3-16.7,8.4-21.4c9-5.9,21.7-3.1,27.8,6.2c4.7,7.3,4.6,16.4-0.5,23.2
	c-1.1,1.5-2.4,1.6-3.8,0.4c-1.4-1.2-1.6-2.4-0.4-3.8c3.5-5,4-11.6,0.5-16.9c-4.4-6.8-13.1-8.7-19.8-4.4c-5.2,3.4-7.3,9.6-6,15.7
	c0.5,1.8-0.6,3.2-1.9,3.3C197.2,328.9,196.1,328.2,195.5,327.2z"/>
<line class="st2" x1="140.8" y1="195.7" x2="152.3" y2="177.4"/>
<path d="M384.1,302c-2.6,0-4.3-1.7-4.3-4.3v-29.8H350c-2.6,0-4.3-1.7-4.3-4.3s1.7-4.3,4.3-4.3h29.9v-29.8c0-2.6,1.7-4.3,4.3-4.3
	s4.3,1.7,4.3,4.3v29.9h29.9c2.6,0,4.3,1.7,4.3,4.3s-1.7,4.3-4.3,4.3h-30v29.9C388.4,300.3,386.7,302,384.1,302z"/>
<path d="M381.1,149.6c-2.6,0-4.3-1.7-4.3-4.3v-12.8H364c-2.6,0-4.3-1.7-4.3-4.3c0-2.6,1.7-4.3,4.3-4.3h12.8v-12.7
	c0-2.6,1.7-4.3,4.3-4.3s4.3,1.7,4.3,4.3V124h12.8c2.6,0,4.3,1.7,4.3,4.3c0,2.6-1.7,4.3-4.3,4.3h-12.8v12.8
	C385.4,147.9,383.7,149.6,381.1,149.6z"/>
<path d="M289.7,255.4c-2.6,0-4.3-1.7-4.3-4.3v-12.8h-12.8c-2.6,0-4.3-1.7-4.3-4.3s1.7-4.3,4.3-4.3h12.8v-12.8c0-2.6,1.7-4.3,4.3-4.3
	s4.3,1.7,4.3,4.3v12.8h12.8c2.6,0,4.3,1.7,4.3,4.3s-1.7,4.3-4.3,4.3H294v12.8C294,253.7,292.3,255.4,289.7,255.4z"/>
<path d="M124,401.2c-2.6,0-4.3-1.7-4.3-4.3v-12.8h-12.8c-2.6,0-4.3-1.7-4.3-4.3s1.7-4.3,4.3-4.3h12.8v-12.8c0-2.6,1.7-4.3,4.3-4.3
	s4.3,1.7,4.3,4.3v12.8h12.8c2.6,0,4.3,1.7,4.3,4.3s-1.7,4.3-4.3,4.3h-12.8v12.8C128.3,399.5,126.6,401.2,124,401.2z"/>
</svg>
