<?xml version="1.0" encoding="utf-8"?>
<!-- Generator: Adobe Illustrator 25.2.0, SVG Export Plug-In . SVG Version: 6.00 Build 0)  -->
<svg version="1.1" id="Layer_1" xmlns="http://www.w3.org/2000/svg" xmlns:xlink="http://www.w3.org/1999/xlink" x="0px" y="0px"
	 viewBox="0 0 640 480" style="enable-background:new 0 0 640 480;" xml:space="preserve">
<style type="text/css">
	.st0{fill:#FFDB6E;stroke:#000000;stroke-width:5;stroke-miterlimit:10;}
	.st1{fill:#82A5AD;stroke:#000000;stroke-width:5;stroke-linejoin:round;stroke-miterlimit:10;}
</style>
<ellipse class="st0" cx="505.7" cy="197.5" rx="91.3" ry="89.5"/>
<g>
	<g>
		<path d="M584.9,118.4c4.8-6.2,9.5-12.6,14.1-19c0.5-0.7,0.1-1.7-0.5-2.1c-0.8-0.4-1.6-0.1-2,0.5c-4.4,6.2-9,12.4-13.7,18.4
			c-0.5,0.6-0.6,1.5,0,2.1C583.3,118.9,584.4,119.1,584.9,118.4L584.9,118.4z"/>
	</g>
</g>
<g>
	<g>
		<path d="M582.9,272.2c5.7,4.3,11.3,8.5,17,12.8c1.3,1,0.2,3-1.1,2.1c-5.7-4.3-11.3-8.5-17-12.8
			C580.5,273.3,581.6,271.3,582.9,272.2L582.9,272.2z"/>
	</g>
</g>
<g>
	<g>
		<path d="M423.2,88.3c4.7,7.2,10.4,13.7,16.6,19.5c1.4,1.3,3.5-0.8,2.1-2.1c-6.1-5.7-11.6-11.9-16.2-18.9
			C424.8,85.2,422.2,86.7,423.2,88.3L423.2,88.3z"/>
	</g>
</g>
<g>
	<g>
		<path d="M600.9,232.5c4.1,2.3,8.2,4.6,12.3,6.9c0.8,0.5,2,0.7,2.7,0.5c0.6-0.2,0.5-0.9-0.3-1.4c-4.1-2.3-8.2-4.6-12.3-6.9
			c-0.8-0.5-2-0.7-2.7-0.5C600,231.4,600,232,600.9,232.5L600.9,232.5z"/>
	</g>
</g>
<g>
	<g>
		<path d="M612.2,175.3c5.9-1.6,12.6-2.5,19.4-3.1c1.4-0.1,2.2-0.8,1.9-1.3c-0.4-0.6-1.9-0.9-3.3-0.8c-7.2,0.7-14.5,1.7-20.7,3.4
			c-1.2,0.3-1.7,0.9-1,1.5C609.3,175.4,611,175.6,612.2,175.3L612.2,175.3z"/>
	</g>
</g>
<g>
	<g>
		<path d="M505.7,89.9c0-6.4,0-12.7,0-19.1c0-1.9-3-1.9-3,0c0,6.4,0,12.7,0,19.1C502.7,91.9,505.7,91.9,505.7,89.9L505.7,89.9z"/>
	</g>
</g>
<path class="st1" d="M590.8,349.8c0-41.5-31.4-75.2-70-75.2c-6.1,0-12,0.8-17.6,2.4c0-0.8,0.1-1.6,0.1-2.4
	c0-83.1-62.7-150.4-140.1-150.4c-48.1,0-90.5,26.1-115.8,65.7c-12.8-6-27-9.3-41.8-9.3c-52.7,0-96.4,41.7-103.9,96.1
	C70.9,284.6,48,314.3,48,349.8c0,41.5,31.4,75.2,70,75.2h420.2v-2.4C568.5,414.3,590.8,384.8,590.8,349.8z"/>
</svg>
