<?xml version="1.0" encoding="utf-8"?>
<!-- Generator: Adobe Illustrator 24.2.1, SVG Export Plug-In . SVG Version: 6.00 Build 0)  -->
<svg version="1.1" id="Layer_1" xmlns="http://www.w3.org/2000/svg" xmlns:xlink="http://www.w3.org/1999/xlink" x="0px" y="0px"
	 viewBox="0 0 504.3 504.3" style="enable-background:new 0 0 504.3 504.3;" xml:space="preserve">
<style type="text/css">
	.st0{fill:#ABCED8;}
	.st1{fill:#FFE079;}
</style>
<path class="st0" d="M128,201c1.7,0,2.6,0,4.3,0c18.8,0,35.8,6,51.2,15.4c2.6-6.8,5.1-12.8,8.5-18.8c1.7-2.6,2.6-5.1,4.3-6.8
	c1.7-2.6,3.4-5.1,6-7.7c4.3-6,9.4-11.1,15.4-16.2c1.7-1.7,3.4-2.6,5.1-4.3c2.6-1.7,5.1-4.3,7.7-6l0,0c20.5-14.5,46.1-23,72.5-23
	c70.8,0,128,57.2,128,128c0,4.3,0,7.7-0.9,11.9c40.1,11.1,69.1,46.9,69.1,90.5c0,52.1-41.8,93.9-93.9,93.9h-59.7H123.7H64
	c-33.3,0-59.7-26.5-59.7-59.7c0-28.2,19.6-51.2,45.2-58c-6.8-13.7-11.1-28.2-11.1-44.4c0-29.9,14.5-57.2,36.7-74.2l0,0
	c10.2-7.7,21.3-13.7,34.1-17.1c2.6-0.9,5.1-0.9,7.7-1.7c2.6-0.9,6-0.9,8.5-0.9C126.3,201,127.1,201,128,201"/>
<path class="st1" d="M230.4,155.7L230.4,155.7c-2.6,1.7-5.1,4.3-7.7,6c-1.7,1.7-3.4,2.6-5.1,4.3c-5.1,5.1-11.1,10.2-15.4,16.2
	c-1.7,2.6-4.3,5.1-6,7.7c-1.7,2.6-3.4,4.3-4.3,6.8c-3.4,6-6.8,12.8-9.4,18.8c-14.5-9.4-32.4-15.4-51.2-15.4c-1.7,0-2.6,0-4.3,0
	c-0.9,0-1.7,0-3.4,0c-3.4,0-6,0.9-8.5,0.9s-5.1,0.9-7.7,1.7c-12.8,3.4-23.9,8.5-34.1,16.2c-1.7-6-2.6-12.8-2.6-19.6
	c0-46.9,38.4-85.3,85.3-85.3C188.6,115.6,215,131.8,230.4,155.7"/>
<path d="M405.3,461.2H64c-35,0-64-29-64-64s29-64,64-64c2.6,0,4.3,1.7,4.3,4.3s-1.7,4.3-4.3,4.3c-30.7,0-55.5,24.7-55.5,55.5
	s24.7,55.5,55.5,55.5h341.3c49.5,0,89.6-40.1,89.6-89.6c0-29-14.5-56.3-37.5-73.4c-1.7-1.7-2.6-4.3-0.9-6c1.7-1.7,4.3-2.6,6-0.9
	c26.5,18.8,41.8,48.6,41.8,80.2C503.5,416.9,459.1,461.2,405.3,461.2z M40.1,316.2c-1.7,0-3.4-1.7-4.3-3.4c-0.9-6-1.7-11.9-1.7-17.9
	c0-53.8,44.4-98.1,98.1-98.1c27.3,0,52.1,11.1,70.8,30.7c1.7,1.7,1.7,4.3,0,6c-1.7,1.7-4.3,1.7-6,0c-17.1-17.9-40.1-28.2-64.9-28.2
	c-49.5,0-89.6,40.1-89.6,89.6c0,5.1,0.9,11.1,1.7,16.2C44.4,313.6,42.7,315.3,40.1,316.2L40.1,316.2z M426.7,299.1h-0.9
	c-2.6-0.9-3.4-2.6-2.6-5.1c2.6-10.2,4.3-21.3,4.3-33.3c0-68.3-55.5-123.7-123.7-123.7c-41,0-79.4,20.5-102.4,54.6
	c-1.7,1.7-4.3,2.6-6,0.9c-1.7-1.7-2.6-4.3-0.9-6c24.7-36.7,65.7-58.9,110.1-58.9c72.5,0,132.3,59.7,132.3,132.3
	c0,11.9-1.7,23.9-5.1,35C430.1,298.2,428.4,299.1,426.7,299.1z M75.1,282h-0.9c-2.6-0.9-3.4-3.4-2.6-5.1
	c4.3-13.7,12.8-25.6,24.7-34.1c1.7-1.7,4.3-0.9,6,0.9c1.7,1.7,0.9,4.3-0.9,6c-10.2,6.8-17.9,17.9-21.3,29.9
	C78.5,281.2,76.8,282,75.1,282z M396.8,265c-2.6,0-4.3-1.7-4.3-4.3c0-17.1-5.1-34.1-14.5-48.6c-1.7-1.7-0.9-4.3,0.9-6
	c1.7-1.7,4.3-0.9,6,0.9c10.2,16.2,16.2,34.1,16.2,53.8C401.1,263.3,399.4,265,396.8,265z M38.4,205.2H4.3c-2.6,0-4.3-1.7-4.3-4.3
	s1.7-4.3,4.3-4.3h34.1c2.6,0,4.3,1.7,4.3,4.3S41,205.2,38.4,205.2z M74.2,188.2h-0.9c-2.6-0.9-3.4-2.6-3.4-5.1
	c8.5-41.8,45.2-71.7,87.9-71.7c19.6,0,38.4,6,53.8,17.9c1.7,1.7,2.6,4.3,0.9,6c-1.7,1.7-4.3,2.6-6,0.9
	c-14.5-10.2-30.7-16.2-48.6-16.2c-38.4,0-71.7,27.3-79.4,64.9C77.7,186.5,75.9,188.2,74.2,188.2z M47.8,159.1c-0.9,0-0.9,0-1.7,0
	l-15.4-6.8c-2.6-0.9-3.4-3.4-2.6-6c0.9-2.6,3.4-3.4,6-2.6l15.4,6.8c2.6,0.9,3.4,3.4,2.6,6C50.3,158.3,49.5,159.1,47.8,159.1z
	 M242.3,120.7c-0.9,0-2.6,0-3.4-0.9c-1.7-1.7-1.7-4.3,0-6L262.8,90c1.7-1.7,4.3-1.7,6,0s1.7,4.3,0,6l-23.9,23.9
	C244.9,120.7,243.2,120.7,242.3,120.7z M73.4,120.7c-0.9,0-2.6,0-3.4-0.9L46.1,96c-1.7-1.7-1.7-4.3,0-6s4.3-1.7,6,0l23.9,23.9
	c1.7,1.7,1.7,4.3,0,6C75.9,120.7,74.2,120.7,73.4,120.7z M111.8,95.1c-1.7,0-3.4-0.9-4.3-2.6l-6.8-15.4c-0.9-2.6,0-4.3,2.6-6
	c2.6-0.9,4.3,0,6,2.6l6.8,15.4c0.9,2.6,0,4.3-2.6,6C113.5,95.1,112.6,95.1,111.8,95.1z M203.9,95.1c-0.9,0-0.9,0-1.7,0
	c-2.6-0.9-3.4-3.4-2.6-6l6.8-15.4c0.9-2.6,3.4-3.4,6-2.6c2.6,0.9,3.4,3.4,2.6,6l-6.8,15.4C206.5,93.4,205.7,95.1,203.9,95.1z
	 M157.9,85.8c-2.6,0-4.3-1.7-4.3-4.3V47.4c0-2.6,1.7-4.3,4.3-4.3s4.3,1.7,4.3,4.3v34.1C162.1,84.1,160.4,85.8,157.9,85.8z"/>
</svg>
