<?xml version="1.0" encoding="utf-8"?>
<!-- Generator: Adobe Illustrator 25.2.0, SVG Export Plug-In . SVG Version: 6.00 Build 0)  -->
<svg version="1.1" id="Layer_1" xmlns="http://www.w3.org/2000/svg" xmlns:xlink="http://www.w3.org/1999/xlink" x="0px" y="0px"
	 viewBox="0 0 640 480" style="enable-background:new 0 0 640 480;" xml:space="preserve">
<style type="text/css">
	.st0{fill:#48484A;stroke:#000000;stroke-width:5;stroke-miterlimit:10;}
	.st1{fill:#82A5AD;stroke:#000000;stroke-width:5;stroke-linejoin:round;stroke-miterlimit:10;}
</style>
<ellipse class="st0" cx="484.71" cy="198.5" rx="91.29" ry="89.5"/>
<path class="st1" d="M558,328.5c0-37.28-30.22-67.5-67.5-67.5c-5.85,0-11.52,0.74-16.93,2.14c0.01-0.72,0.05-1.42,0.05-2.14
	c0-74.56-60.44-135-135-135c-46.36,0-87.26,23.38-111.57,58.99c-12.35-5.37-25.98-8.36-40.31-8.36
	c-50.82,0-92.88,37.44-100.14,86.24c-29.67,7.1-51.74,33.78-51.74,65.63c0,37.28,30.22,67.5,67.5,67.5h405v-2.13
	C536.49,386.38,558,359.95,558,328.5z"/>
</svg>
