<?xml version="1.0" encoding="utf-8"?>
<!-- Generator: Adobe Illustrator 25.0.0, SVG Export Plug-In . SVG Version: 6.00 Build 0)  -->
<svg version="1.1" id="Layer_1" xmlns="http://www.w3.org/2000/svg" xmlns:xlink="http://www.w3.org/1999/xlink" x="0px" y="0px"
	 viewBox="0 0 504.3 504.3" style="enable-background:new 0 0 504.3 504.3;" xml:space="preserve">
<style type="text/css">
	.st0{fill:#2C576D;stroke:#000000;stroke-width:8;stroke-linejoin:round;stroke-miterlimit:10;}
	.st1{fill:none;stroke:#000000;stroke-width:12;stroke-linejoin:round;stroke-miterlimit:10;}
	.st2{fill:#686C6D;}
	.st3{stroke:#000000;stroke-miterlimit:10;}
</style>
<path class="st0" d="M398.5,118.8c-4.2,1.2-36.1,10.6-48.7,41.7c-11.8,29.2-2.4,66.4,25,84.2c27.2,17.7,58.1,7,61.9,5.6
	c-26.4,35.1-72.5,47-109.2,29.9c-30.3-14.1-50-46-49.5-79.9c0.6-38.3,29.2-62.8,34.9-67.4c5.4-4.4,9.9-7.1,11.1-7.8
	C352.3,108.8,384,114.9,398.5,118.8z"/>
<path d="M304.4,143.5c0.5-0.1,0.5-0.1,1-0.2c7.3,1.1,12.8,6.4,14.1,13.4c1.7,8.9-4.8,17.9-14.1,19.6c-7.3,1.4-14.5-1.7-18.1-7.8
	c-0.8-1.3-0.4-2.4,1-3.1c1.4-0.7,2.5-0.5,3.2,0.9c2.8,4.3,7.8,6.8,13.2,5.8c6.8-1.3,11.2-7.4,10-14c-1-5.2-5.2-8.7-10.4-9.7
	c-1.6-0.2-2.3-1.5-2-2.5C302.5,144.3,303.4,143.7,304.4,143.5z"/>
<circle class="st1" cx="302.5" cy="219.5" r="12"/>
<path d="M327.8,252.5c-0.2-0.4-0.2-0.4-0.4-0.7c-1.4-5.8,0.9-11.7,5.9-14.9c6.3-4.1,15.1-2.1,19.3,4.3c3.3,5.1,3.2,11.4-0.3,16.1
	c-0.8,1-1.7,1.1-2.6,0.3c-1-0.8-1.1-1.7-0.3-2.7c2.4-3.5,2.8-8.1,0.3-11.8c-3.1-4.7-9.1-6.1-13.8-3.1c-3.6,2.4-5.1,6.7-4.2,10.9
	c0.3,1.3-0.4,2.2-1.3,2.3C329.1,253.7,328.3,253.2,327.8,252.5z"/>
<path d="M433.1,356c-1.8,0-3-1.2-3-3v-20.7h-20.7c-1.8,0-3-1.2-3-3s1.2-3,3-3h20.8v-20.7c0-1.8,1.2-3,3-3c1.8,0,3,1.2,3,3v20.8H457
	c1.8,0,3,1.2,3,3s-1.2,3-3,3h-20.9v20.8C436.1,354.8,434.9,356,433.1,356z"/>
<path d="M223.9,157.9c-1.8,0-3-1.2-3-3V146H212c-1.8,0-3-1.2-3-3s1.2-3,3-3h8.9v-8.8c0-1.8,1.2-3,3-3c1.8,0,3,1.2,3,3v8.9h8.9
	c1.8,0,3,1.2,3,3s-1.2,3-3,3h-8.9v8.9C226.9,156.7,225.7,157.9,223.9,157.9z"/>
<path d="M393.4,202.5c-1.8,0-3-1.2-3-3v-8.9h-8.9c-1.8,0-3-1.2-3-3c0-1.8,1.2-3,3-3h8.9v-8.9c0-1.8,1.2-3,3-3c1.8,0,3,1.2,3,3v8.9
	h8.9c1.8,0,3,1.2,3,3c0,1.8-1.2,3-3,3h-8.9v8.9C396.4,201.3,395.2,202.5,393.4,202.5z"/>
<path d="M278.1,304c-1.8,0-3-1.2-3-3v-8.9h-8.9c-1.8,0-3-1.2-3-3s1.2-3,3-3h8.9v-8.9c0-1.8,1.2-3,3-3c1.8,0,3,1.2,3,3v8.9h8.9
	c1.8,0,3,1.2,3,3s-1.2,3-3,3h-8.9v8.9C281.1,302.8,279.9,304,278.1,304z"/>
<path class="st2" d="M337.2,266.6c27.2,7.7,47.7,32.4,47.7,62.5c0,36-28.9,64.9-64.9,64.9H84.2c-23,0-41.2-18.3-41.2-41.2
	c0-19.5,13.5-35.4,31.2-40.1c-4.7-9.5-7.7-19.5-7.7-30.7c0-36,28.9-64.9,64.9-64.9c13,0,24.7,3.5,35.4,10.6
	c12.4-33.6,44.8-57.8,82.6-57.8c48.9,0,88.4,39.5,88.4,88.4C337.7,261.3,337.7,263.6,337.2,266.6"/>
<path class="st3" d="M320,396.9H84.2c-24.2,0-44.2-20-44.2-44.2s20-44.2,44.2-44.2c1.8,0,3,1.2,3,3c0,1.8-1.2,3-3,3
	c-21.2,0-38.3,17.1-38.3,38.3c0,21.3,17.1,38.3,38.3,38.3H320c34.2,0,61.9-27.7,61.9-61.9c0-20-10-38.9-25.9-50.7
	c-1.2-1.2-1.8-3-0.6-4.1c1.2-1.2,3-1.8,4.1-0.6c17.7,13,28.9,33.6,28.9,55.4C387.9,366.2,357.2,396.9,320,396.9z M67.7,296.6
	c-1.2,0-2.3-1.2-3-2.3c-0.6-4.1-1.2-8.2-1.2-12.4c0-37.2,30.7-67.8,67.8-67.8c18.9,0,36,7.7,48.9,21.2c1.2,1.2,1.2,3,0,4.1
	s-3,1.2-4.1,0c-11.7-12.4-27.6-19.5-44.7-19.5c-34.2,0-61.9,27.7-61.9,61.9c0,3.5,0.6,7.7,1.2,11.2
	C70.7,294.9,69.5,296.1,67.7,296.6L67.7,296.6z M334.8,284.9h-0.6c-1.8-0.6-2.3-1.8-1.8-3.5c1.8-7.7,3-15.3,3-23
	c0-47.2-38.3-85.5-85.5-85.5c-28.3,0-54.9,14.2-70.8,37.7c-1.2,1.2-3,1.8-4.1,0.6c-1.2-1.2-1.8-3-0.6-4.1
	c17.1-25.4,45.4-40.7,76.1-40.7c50.1,0,91.4,41.2,91.4,91.4c0,8.2-1.2,16.5-3.5,24.2C337.2,284.3,336,284.9,334.8,284.9z
	 M91.9,273.1h-0.6c-1.8-0.6-2.3-2.3-1.8-3.5c3-9.5,8.8-17.7,17.1-23.6c1.2-1.2,3-0.6,4.1,0.6c1.2,1.2,0.6,3-0.6,4.1
	c-7,4.7-12.4,12.4-14.7,20.7C94.2,272.5,93.1,273.1,91.9,273.1z M314.2,261.3c-1.8,0-3-1.2-3-3c0-11.8-3.5-23.6-10-33.6
	c-1.2-1.2-0.6-3,0.6-4.1c1.2-1.2,3-0.6,4.1,0.6c7,11.2,11.2,23.6,11.2,37.2C317.1,260.1,316,261.3,314.2,261.3z"/>
</svg>
