<?xml version="1.0" encoding="utf-8"?>
<!-- Generator: Adobe Illustrator 25.2.0, SVG Export Plug-In . SVG Version: 6.00 Build 0)  -->
<svg version="1.1" id="Layer_1" xmlns="http://www.w3.org/2000/svg" xmlns:xlink="http://www.w3.org/1999/xlink" x="0px" y="0px"
	 viewBox="0 0 640 480" style="enable-background:new 0 0 640 480;" xml:space="preserve">
<style type="text/css">
	.st0{fill:#82A5AD;stroke:#000000;stroke-width:5;stroke-linejoin:round;stroke-miterlimit:10;}
</style>
<path class="st0" d="M606.1,319c0-43.6-33-79-73.8-79c-6.4,0-12.6,0.9-18.5,2.5c0-0.8,0-1.7,0-2.5c0-87.3-66.1-158.1-147.6-158.1
	c-50.7,0-95.4,27.4-122,69.1c-13.5-6.3-28.4-9.8-44.1-9.8c-55.6,0-101.6,43.8-109.5,101C58,250.5,33.9,281.7,33.9,319
	c0,43.6,33,79,73.8,79h443v-2.5C582.6,386.8,606.1,355.9,606.1,319z"/>
</svg>
