<?xml version="1.0" encoding="utf-8"?>
<!-- Generator: Adobe Illustrator 25.2.0, SVG Export Plug-In . SVG Version: 6.00 Build 0)  -->
<svg version="1.1" id="Layer_1" xmlns="http://www.w3.org/2000/svg" xmlns:xlink="http://www.w3.org/1999/xlink" x="0px" y="0px"
	 viewBox="0 0 640 480" style="enable-background:new 0 0 640 480;" xml:space="preserve">
<style type="text/css">
	.st0{fill:#666666;stroke:#000000;stroke-width:5;stroke-linejoin:round;stroke-miterlimit:10;}
	.st1{fill:#B3B3B3;stroke:#000000;stroke-width:5;stroke-linejoin:round;stroke-miterlimit:10;}
</style>
<path class="st0" d="M625.1,207.4c0-29.8-24.6-54-55-54c-4.8,0-9.4,0.6-13.8,1.7c0-0.6,0-1.1,0-1.7c0-59.6-49.2-108-110-108
	c-37.8,0-71.1,18.7-90.9,47.2c-10.1-4.3-21.2-6.7-32.8-6.7c-41.4,0-75.7,29.9-81.6,69c-24.2,5.7-42.2,27-42.2,52.5
	c0,29.8,24.6,54,55,54h329.9v-1.7C607.5,253.7,625.1,232.6,625.1,207.4z"/>
<path class="st1" d="M568.3,319.7c0-39.4-30-71.3-67-71.3c-5.8,0-11.4,0.8-16.8,2.3c0-0.8,0-1.5,0-2.3c0-78.8-60-142.6-134-142.6
	c-46,0-86.6,24.7-110.7,62.3c-12.2-5.7-25.8-8.8-40-8.8c-50.4,0-92.2,39.6-99.4,91.1c-29.4,7.5-51.3,35.7-51.3,69.3
	c0,39.4,30,71.3,67,71.3H518v-2.2C547,380.8,568.3,352.9,568.3,319.7z"/>
</svg>
