<?xml version="1.0" encoding="utf-8"?>
<!-- Generator: Adobe Illustrator 25.0.0, SVG Export Plug-In . SVG Version: 6.00 Build 0)  -->
<svg version="1.1" id="Layer_1" xmlns="http://www.w3.org/2000/svg" xmlns:xlink="http://www.w3.org/1999/xlink" x="0px" y="0px"
	 viewBox="0 0 504.3 504.3" style="enable-background:new 0 0 504.3 504.3;" xml:space="preserve">
<style type="text/css">
	.st0{fill:#686C6D;}
</style>
<path class="st0" d="M260.3,436.9c-7.7,1.7-16.2,3.4-25.6,3.4c-51.2,0-76.8-34.1-76.8-34.1c0-34.1-34.1-34.1-34.1-34.1h-0.9H64
	c-33.3,0-59.7-26.5-59.7-59.7c0-28.2,19.6-51.2,45.2-58c-6.8-13.7-11.1-28.2-11.1-44.4c0-52.1,41.8-93.9,93.9-93.9
	c18.8,0,35.8,5.1,51.2,15.4c17.9-48.6,64.9-83.6,119.5-83.6c70.8,0,128,57.2,128,128c0,4.3,0,7.7-0.9,11.9
	c40.1,11.1,69.1,46.9,69.1,90.5c0,52.1-41.8,93.9-93.9,93.9h-59.7c0,0-34.1,0-34.1,34.1C311.5,406.2,294.4,429.2,260.3,436.9"/>
<path d="M311.5,461.7c-2.6,0-4.3-1.7-4.3-4.3v-17.1c0-2.6,1.7-4.3,4.3-4.3s4.3,1.7,4.3,4.3v17.1C315.7,459.9,314,461.7,311.5,461.7z
	 M209.1,461.7c-2.6,0-4.3-1.7-4.3-4.3v-17.1c0-2.6,1.7-4.3,4.3-4.3s4.3,1.7,4.3,4.3v17.1C213.3,459.9,211.6,461.7,209.1,461.7z
	 M260.3,444.6c-2.6,0-4.3-1.7-4.3-4.3v-17.1c0-2.6,1.7-4.3,4.3-4.3s4.3,1.7,4.3,4.3v17.1C264.5,442.9,262.8,444.6,260.3,444.6z
	 M157.9,427.5c-2.6,0-4.3-1.7-4.3-4.3v-17.1c0-29-29-29.9-29.9-29.9H64c-35,0-64-29-64-64s29-64,64-64c2.6,0,4.3,1.7,4.3,4.3
	s-1.7,4.3-4.3,4.3c-30.7,0-55.5,24.7-55.5,55.5s24.7,55.5,55.5,55.5h59.7c13.7,0,38.4,7.7,38.4,38.4v17.1
	C162.1,425.8,160.4,427.5,157.9,427.5z M311.5,410.5c-2.6,0-4.3-1.7-4.3-4.3c0-30.7,24.7-38.4,38.4-38.4h59.7
	c49.5,0,89.6-40.1,89.6-89.6c0-29-14.5-56.3-37.5-73.4c-1.7-1.7-2.6-4.3-0.9-6s4.3-2.6,6-0.9c25.6,18.8,41.8,48.6,41.8,80.2
	c0,53.8-44.4,98.1-98.1,98.1h-59.7c-0.9,0-29.9,0.9-29.9,29.9C315.7,408.7,314,410.5,311.5,410.5z M209.1,410.5
	c-2.6,0-4.3-1.7-4.3-4.3v-17.1c0-2.6,1.7-4.3,4.3-4.3s4.3,1.7,4.3,4.3v17.1C213.3,408.7,211.6,410.5,209.1,410.5z M260.3,393.4
	c-2.6,0-4.3-1.7-4.3-4.3V372c0-2.6,1.7-4.3,4.3-4.3s4.3,1.7,4.3,4.3v17.1C264.5,391.7,262.8,393.4,260.3,393.4z M209.1,359.3
	c-2.6,0-4.3-1.7-4.3-4.3v-17.1c0-2.6,1.7-4.3,4.3-4.3s4.3,1.7,4.3,4.3V355C213.3,357.5,211.6,359.3,209.1,359.3z M40.1,231.3
	c-1.7,0-3.4-1.7-4.3-3.4c-0.9-6-1.7-11.9-1.7-17.9c0-53.8,44.4-98.1,98.1-98.1c27.3,0,52.1,11.1,70.8,30.7c1.7,1.7,1.7,4.3,0,6
	s-4.3,1.7-6,0c-17.1-17.9-40.1-28.2-64.9-28.2c-49.5,0-89.6,40.1-89.6,89.6c0,5.1,0.9,11.1,1.7,16.2
	C44.4,228.7,42.7,230.4,40.1,231.3L40.1,231.3z M426.7,214.2h-0.9c-2.6-0.9-3.4-2.6-2.6-5.1c2.6-11.1,4.3-22.2,4.3-33.3
	c0-68.3-55.5-123.7-123.7-123.7c-41,0-79.4,20.5-102.4,54.6c-1.7,1.7-4.3,2.6-6,0.9s-2.6-4.3-0.9-6c24.7-36.7,65.7-58.9,110.1-58.9
	c72.5,0,132.3,59.7,132.3,132.3c0,11.9-1.7,23.9-5.1,35C430.1,213.3,428.4,214.2,426.7,214.2z M75.1,197.1h-0.9
	c-2.6-0.9-3.4-3.4-2.6-5.1c4.3-13.7,12.8-25.6,24.7-34.1c1.7-1.7,4.3-0.9,6,0.9c1.7,1.7,0.9,4.3-0.9,6
	c-10.2,6.8-17.9,17.9-21.3,29.9C78.5,196.3,76.8,197.1,75.1,197.1z M396.8,180.1c-2.6,0-4.3-1.7-4.3-4.3c0-17.1-5.1-34.1-14.5-48.6
	c-1.7-1.7-0.9-4.3,0.9-6c1.7-1.7,4.3-0.9,6,0.9c10.2,16.2,16.2,34.1,16.2,53.8C401.1,178.3,399.4,180.1,396.8,180.1z"/>
<path d="M470,164.9c-1.8,0-3-1.2-3-3V153h-8.9c-1.8,0-3-1.2-3-3s1.2-3,3-3h8.9v-8.8c0-1.8,1.2-3,3-3s3,1.2,3,3v8.9h8.9
	c1.8,0,3,1.2,3,3s-1.2,3-3,3H473v8.9C473,163.7,471.8,164.9,470,164.9z"/>
<path d="M75.1,105.7c-1.8,0-3-1.2-3-3v-8.9h-8.9c-1.8,0-3-1.2-3-3s1.2-3,3-3h8.9v-8.9c0-1.8,1.2-3,3-3s3,1.2,3,3v8.9H87
	c1.8,0,3,1.2,3,3s-1.2,3-3,3h-8.9v8.9C78.1,104.5,76.9,105.7,75.1,105.7z"/>
<path d="M151,81.1c-2.1,0-3.4-1.3-3.4-3.4V54.1H124c-2.1,0-3.4-1.3-3.4-3.4s1.3-3.4,3.4-3.4h23.7V23.7c0-2.1,1.3-3.4,3.4-3.4
	s3.4,1.3,3.4,3.4v23.7h23.7c2.1,0,3.4,1.3,3.4,3.4s-1.3,3.4-3.4,3.4h-23.7v23.7C154.4,79.8,153,81.1,151,81.1z"/>
</svg>
