<?xml version="1.0" encoding="utf-8"?>
<!-- Generator: Adobe Illustrator 25.2.0, SVG Export Plug-In . SVG Version: 6.00 Build 0)  -->
<svg version="1.1" id="Layer_1" xmlns="http://www.w3.org/2000/svg" xmlns:xlink="http://www.w3.org/1999/xlink" x="0px" y="0px"
	 viewBox="0 0 640 480" style="enable-background:new 0 0 640 480;" xml:space="preserve">
<style type="text/css">
	.st0{fill:#4D4D4D;stroke:#000000;stroke-width:5;stroke-linejoin:round;stroke-miterlimit:10;}
</style>
<path class="st0" d="M604.3,274.6c0-42-31.7-76.1-70.8-76.1c-6.1,0-12.1,0.8-17.8,2.4c0-0.8,0-1.6,0-2.4
	c0-84-63.4-152.1-141.7-152.1c-48.7,0-91.6,26.3-117.1,66.5c-13-6.1-27.3-9.4-42.3-9.4c-53.3,0-97.5,42.2-105.1,97.2
	c-31.1,8-54.3,38.1-54.3,73.9c0,42,31.7,76.1,70.8,76.1h425.1v-2.4C581.7,339.9,604.3,310.1,604.3,274.6z"/>
<polygon points="409.6,439.8 405.1,437.2 437.4,380.2 441.8,382.8 "/>
<polygon points="340.9,439.8 336.4,437.2 368.7,380.2 373.2,382.8 "/>
<polygon points="476.4,439.8 471.9,437.2 504.2,380.2 508.7,382.8 "/>
<polygon points="109.8,435.2 105.3,432.6 137.6,375.5 142.1,378.1 "/>
<polygon points="186.7,435.2 182.2,432.6 214.4,375.5 218.9,378.1 "/>
<polygon points="267.6,435.2 263.1,432.6 295.4,375.5 299.9,378.1 "/>
</svg>
