<?xml version="1.0" encoding="utf-8"?>
<!-- Generator: Adobe Illustrator 25.2.0, SVG Export Plug-In . SVG Version: 6.00 Build 0)  -->
<svg version="1.1" id="Layer_1" xmlns="http://www.w3.org/2000/svg" xmlns:xlink="http://www.w3.org/1999/xlink" x="0px" y="0px"
	 viewBox="0 0 640 480" style="enable-background:new 0 0 640 480;" xml:space="preserve">
<style type="text/css">
	.st0{fill:#FFDB6E;stroke:#000000;stroke-width:5;stroke-miterlimit:10;}
	.st1{fill:#B3B3B3;stroke:#000000;stroke-width:5;stroke-linejoin:round;stroke-miterlimit:10;}
	.st2{stroke:#000000;stroke-width:2;stroke-miterlimit:10;}
</style>
<ellipse class="st0" cx="187.5" cy="151.2" rx="124.5" ry="116"/>
<path class="st1" d="M628.1,279.7c0-42-32.3-76.1-72.2-76.1c-6.3,0-12.3,0.8-18.1,2.4c0-0.8,0-1.6,0-2.4
	c0-84-64.6-152.1-144.4-152.1c-49.6,0-93.3,26.3-119.3,66.5c-13.2-6.1-27.8-9.4-43.1-9.4c-54.3,0-99.3,42.2-107.1,97.2
	c-31.7,8-55.3,38.1-55.3,73.9c0,42,32.3,76,72.2,76h433.1v-2.4C605.1,345,628.1,315.2,628.1,279.7z"/>
<polygon points="438.5,439.6 434,437 466.2,379.9 470.7,382.5 "/>
<polygon points="358.1,439.6 353.6,437 385.8,379.9 390.3,382.5 "/>
<polygon points="509.8,439.6 505.3,437 537.5,379.9 542,382.5 "/>
<polygon points="121.8,439.6 117.3,437 149.6,379.9 154,382.5 "/>
<polygon points="196.2,439.6 191.7,437 223.9,379.9 228.4,382.5 "/>
<polygon points="275,439.6 270.5,437 302.7,379.9 307.2,382.5 "/>
<g>
	<g>
		<path d="M75.4,31.1c6.3,5.7,12.6,11.4,19,17.1c1.4,1.3,0,4.3-1.4,3c-6.4-5.7-12.7-11.4-19-17.1C72.6,32.8,74,29.9,75.4,31.1
			L75.4,31.1z"/>
	</g>
</g>
<g>
	<g>
		<path d="M18.8,131.6c8.8,0.6,17.6,1.2,26.4,1.8c2,0.1,2.5,3.2,0.5,3.1c-8.8-0.6-17.6-1.2-26.4-1.8
			C17.2,134.5,16.8,131.4,18.8,131.6L18.8,131.6z"/>
	</g>
</g>
<g>
	<g>
		<path d="M234,10.4c-4,6.5-8,12.9-12,19.4c-0.9,1.5-4,0.8-3.1-0.6c4-6.5,8-12.9,12-19.4C231.9,8.3,234.9,8.9,234,10.4L234,10.4z"/>
	</g>
</g>
<g>
	<g>
		<path d="M34.1,206.9c6.5-2.8,13-5.6,19.6-8.4c1.5-0.6,2.7,1.4,1.2,2c-6.5,2.8-13,5.6-19.6,8.4C33.9,209.5,32.6,207.5,34.1,206.9
			L34.1,206.9z"/>
	</g>
</g>
<g>
	<g>
		<path class="st2" d="M140.9,14.6c0.8,4.9,1.7,9.7,2.5,14.6c0.2,1.1-1.5,2-1.7,0.9c-0.8-4.9-1.7-9.7-2.5-14.6
			C139,14.4,140.7,13.5,140.9,14.6L140.9,14.6z"/>
	</g>
</g>
<g>
	<g>
		<path class="st2" d="M47.8,78.9c3.4,1.4,6.8,2.8,10.3,4.2c0.8,0.3,0.8,1.9,0,1.6c-3.4-1.4-6.8-2.8-10.3-4.2
			C47,80.1,47,78.5,47.8,78.9L47.8,78.9z"/>
	</g>
</g>
</svg>
