<?xml version="1.0" encoding="utf-8"?>
<!-- Generator: Adobe Illustrator 24.2.1, SVG Export Plug-In . SVG Version: 6.00 Build 0)  -->
<svg version="1.1" id="Layer_1" xmlns="http://www.w3.org/2000/svg" xmlns:xlink="http://www.w3.org/1999/xlink" x="0px" y="0px"
	 viewBox="0 0 504.3 504.3" style="enable-background:new 0 0 504.3 504.3;" xml:space="preserve">
<style type="text/css">
	.st0{fill:#AAB1BA;}
	.st1{fill:#FFE079;}
</style>
<g transform="translate(1 9)">
	<path class="st0" d="M259.3,470.1c-7.7,1.7-16.2,3.4-25.6,3.4c-51.2,0-76.8-34.1-76.8-34.1c0-34.1-34.1-34.1-34.1-34.1h-0.9H63
		c-33.3,0-59.7-26.5-59.7-59.7c0-28.2,19.6-51.2,45.2-58c-6.8-13.7-11.1-28.2-11.1-44.4c0-52.1,41.8-93.9,93.9-93.9
		c18.8,0,35.8,5.1,51.2,15.4C200.4,116,247.3,81,301.9,81c70.8,0,128,57.2,128,128c0,4.3,0,7.7-0.9,11.9
		c40.1,11.1,69.1,46.9,69.1,90.5c0,52.1-41.8,93.9-93.9,93.9h-59.7c0,0-34.1,0-34.1,34.1C310.5,439.4,293.4,462.5,259.3,470.1"/>
	<path class="st1" d="M229.4,104.1L229.4,104.1c-2.6,1.7-5.1,4.3-7.7,6c-1.7,1.7-3.4,2.6-5.1,4.3c-5.1,5.1-11.1,10.2-15.4,16.2
		c-1.7,2.6-4.3,5.1-6,7.7s-3.4,4.3-4.3,6.8c-3.4,6-6.8,12.8-9.4,18.8c-14.5-9.4-32.4-15.4-51.2-15.4c-1.7,0-2.6,0-4.3,0
		c-0.9,0-1.7,0-3.4,0c-3.4,0-6,0.9-8.5,0.9s-5.1,0.9-7.7,1.7c-12.8,3.4-23.9,8.5-34.1,16.2c-1.7-6-2.6-12.8-2.6-19.6
		c0-46.9,38.4-85.3,85.3-85.3C187.6,64,214,80.2,229.4,104.1"/>
</g>
<path d="M311.5,503.9c-2.6,0-4.3-1.7-4.3-4.3v-17.1c0-2.6,1.7-4.3,4.3-4.3s4.3,1.7,4.3,4.3v17.1C315.7,502.2,314,503.9,311.5,503.9z
	 M209.1,503.9c-2.6,0-4.3-1.7-4.3-4.3v-17.1c0-2.6,1.7-4.3,4.3-4.3s4.3,1.7,4.3,4.3v17.1C213.3,502.2,211.6,503.9,209.1,503.9z
	 M260.3,486.8c-2.6,0-4.3-1.7-4.3-4.3v-17.1c0-2.6,1.7-4.3,4.3-4.3s4.3,1.7,4.3,4.3v17.1C264.5,485.1,262.8,486.8,260.3,486.8z
	 M157.9,469.8c-2.6,0-4.3-1.7-4.3-4.3v-17.1c0-29-29-29.9-29.9-29.9H64c-35,0-64-29-64-64s29-64,64-64c2.6,0,4.3,1.7,4.3,4.3
	s-1.7,4.3-4.3,4.3c-30.7,0-55.5,24.7-55.5,55.5S33.3,410,64,410h59.7c13.7,0,38.4,7.7,38.4,38.4v17.1
	C162.1,468.1,160.4,469.8,157.9,469.8z M311.5,452.7c-2.6,0-4.3-1.7-4.3-4.3c0-30.7,24.7-38.4,38.4-38.4h59.7
	c49.5,0,89.6-40.1,89.6-89.6c0-29-14.5-56.3-37.5-73.4c-1.7-1.7-2.6-4.3-0.9-6s4.3-2.6,6-0.9c26.5,18.8,41.8,48.6,41.8,80.2
	c0,53.8-44.4,98.1-98.1,98.1h-59.7c-0.9,0-29.9,0.9-29.9,29.9C315.7,451,314,452.7,311.5,452.7z M209.1,452.7
	c-2.6,0-4.3-1.7-4.3-4.3v-17.1c0-2.6,1.7-4.3,4.3-4.3s4.3,1.7,4.3,4.3v17.1C213.3,451,211.6,452.7,209.1,452.7z M260.3,435.6
	c-2.6,0-4.3-1.7-4.3-4.3v-17.1c0-2.6,1.7-4.3,4.3-4.3s4.3,1.7,4.3,4.3v17.1C264.5,433.9,262.8,435.6,260.3,435.6z M209.1,401.5
	c-2.6,0-4.3-1.7-4.3-4.3v-17.1c0-2.6,1.7-4.3,4.3-4.3s4.3,1.7,4.3,4.3v17.1C213.3,399.8,211.6,401.5,209.1,401.5z M40.1,273.5
	c-1.7,0-3.4-1.7-4.3-3.4c-0.9-6-1.7-11.9-1.7-17.9c0-53.8,44.4-98.1,98.1-98.1c27.3,0,52.1,11.1,70.8,30.7c1.7,1.7,1.7,4.3,0,6
	c-1.7,1.7-4.3,1.7-6,0c-17.1-17.9-40.1-28.2-64.9-28.2c-49.5,0-89.6,40.1-89.6,89.6c0,5.1,0.9,11.1,1.7,16.2
	C44.4,270.9,42.7,272.6,40.1,273.5L40.1,273.5z M426.7,256.4h-0.9c-2.6-0.9-3.4-2.6-2.6-5.1c2.6-10.2,4.3-21.3,4.3-33.3
	c0-68.3-55.5-123.7-123.7-123.7c-41,0-79.4,20.5-102.4,54.6c-1.7,1.7-4.3,2.6-6,0.9c-1.7-1.7-2.6-4.3-0.9-6
	c24.7-36.7,65.7-58.9,110.1-58.9c72.5,0,132.3,59.7,132.3,132.3c0,11.9-1.7,23.9-5.1,35C430.1,255.6,428.4,256.4,426.7,256.4z
	 M75.1,239.4h-0.9c-2.6-0.9-3.4-3.4-2.6-5.1c4.3-13.7,12.8-25.6,24.7-34.1c1.7-1.7,4.3-0.9,6,0.9c1.7,1.7,0.9,4.3-0.9,6
	c-10.2,6.8-17.9,17.9-21.3,29.9C78.5,238.5,76.8,239.4,75.1,239.4z M396.8,222.3c-2.6,0-4.3-1.7-4.3-4.3c0-17.1-5.1-34.1-14.5-48.6
	c-1.7-1.7-0.9-4.3,0.9-6c1.7-1.7,4.3-0.9,6,0.9c10.2,16.2,16.2,34.1,16.2,53.8C401.1,220.6,399.4,222.3,396.8,222.3z M38.4,162.6
	H4.3c-2.6,0-4.3-1.7-4.3-4.3s1.7-4.3,4.3-4.3h34.1c2.6,0,4.3,1.7,4.3,4.3S41,162.6,38.4,162.6z M74.2,145.5h-0.9
	c-2.6-0.9-3.4-2.6-3.4-5.1c8.5-41.8,45.2-71.7,87.9-71.7c19.6,0,38.4,6,53.8,17.9c1.7,1.7,2.6,4.3,0.9,6c-1.7,1.7-4.3,2.6-6,0.9
	c-14.5-10.2-30.7-16.2-48.6-16.2c-38.4,0-71.7,27.3-79.4,64.9C77.7,143.8,75.9,145.5,74.2,145.5z M47.8,116.5c-0.9,0-0.9,0-1.7,0
	l-15.4-6.8c-2.6-0.9-3.4-3.4-2.6-6s3.4-3.4,6-2.6l15.4,6.8c2.6,0.9,3.4,3.4,2.6,6C50.3,115.6,49.5,116.5,47.8,116.5z M242.3,78.1
	c-0.9,0-2.6,0-3.4-0.9c-1.7-1.7-1.7-4.3,0-6l23.9-23.9c1.7-1.7,4.3-1.7,6,0s1.7,4.3,0,6l-23.9,23.9
	C244.9,78.1,243.2,78.1,242.3,78.1z M73.4,78.1c-0.9,0-2.6,0-3.4-0.9L46.1,53.3c-1.7-1.7-1.7-4.3,0-6s4.3-1.7,6,0l23.9,23.9
	c1.7,1.7,1.7,4.3,0,6C75.9,78.1,74.2,78.1,73.4,78.1z M111.8,52.5c-1.7,0-3.4-0.9-4.3-2.6l-6.8-15.4c-0.9-2.6,0-4.3,2.6-6
	c2.6-0.9,4.3,0,6,2.6l6.8,15.4c0.9,2.6,0,4.3-2.6,6C113.5,52.5,112.6,52.5,111.8,52.5z M203.9,52.5c-0.9,0-0.9,0-1.7,0
	c-2.6-0.9-3.4-3.4-2.6-6l6.8-15.4c0.9-2.6,3.4-3.4,6-2.6c2.6,0.9,3.4,3.4,2.6,6l-6.8,15.4C206.5,50.8,205.7,52.5,203.9,52.5z
	 M157.9,43.1c-2.6,0-4.3-1.7-4.3-4.3V4.7c0-2.6,1.7-4.3,4.3-4.3s4.3,1.7,4.3,4.3v34.1C162.1,41.4,160.4,43.1,157.9,43.1z"/>
</svg>
