<?xml version="1.0" encoding="utf-8"?>
<!-- Generator: Adobe Illustrator 25.0.0, SVG Export Plug-In . SVG Version: 6.00 Build 0)  -->
<svg version="1.1" id="Layer_1" xmlns="http://www.w3.org/2000/svg" xmlns:xlink="http://www.w3.org/1999/xlink" x="0px" y="0px"
	 viewBox="0 0 504.3 504.3" style="enable-background:new 0 0 504.3 504.3;" xml:space="preserve">
<style type="text/css">
	.st0{fill:#2C576D;stroke:#000000;stroke-width:8;stroke-linejoin:round;stroke-miterlimit:10;}
	.st1{fill:#686C6D;}
</style>
<path class="st0" d="M213.7,39.3c-4.2,1.2-36.1,10.6-48.7,41.7c-11.8,29.2-2.4,66.4,25,84.2c27.2,17.7,58.1,7,61.9,5.6
	c-26.4,35.1-72.5,47-109.2,29.9c-30.3-14.1-50-46-49.5-79.9c0.6-38.3,29.2-62.8,34.9-67.4c5.4-4.4,9.9-7.1,11.1-7.8
	C167.5,29.3,199.2,35.4,213.7,39.3z"/>
<path d="M417.9,117.7c-1.8,0-3-1.2-3-3V94h-20.7c-1.8,0-3-1.2-3-3s1.2-3,3-3H415V67.3c0-1.8,1.2-3,3-3c1.8,0,3,1.2,3,3v20.8h20.8
	c1.8,0,3,1.2,3,3s-1.2,3-3,3h-20.9v20.8C420.9,116.5,419.7,117.7,417.9,117.7z"/>
<path d="M212.1,98c-1.8,0-3-1.2-3-3v-8.9h-8.9c-1.8,0-3-1.2-3-3s1.2-3,3-3h8.9v-8.8c0-1.8,1.2-3,3-3c1.8,0,3,1.2,3,3v8.9h8.9
	c1.8,0,3,1.2,3,3s-1.2,3-3,3h-8.9v8.9C215.1,96.8,213.9,98,212.1,98z"/>
<path d="M450,153.9c-1.8,0-3-1.2-3-3V142h-8.9c-1.8,0-3-1.2-3-3s1.2-3,3-3h8.9v-8.9c0-1.8,1.2-3,3-3c1.8,0,3,1.2,3,3v8.9h8.9
	c1.8,0,3,1.2,3,3s-1.2,3-3,3H453v8.9C453,152.7,451.8,153.9,450,153.9z"/>
<g transform="translate(1 9)">
	<path class="st1" d="M259.1,470.2c-7.7,1.7-16.2,3.4-25.6,3.4c-51.2,0-76.8-34.1-76.8-34.1c0-34.1-34.1-34.1-34.1-34.1h-0.9H62.8
		c-33.3,0-59.7-26.5-59.7-59.7c0-28.2,19.6-51.2,45.2-58c-6.8-13.7-11.1-28.2-11.1-44.4c0-52.1,41.8-93.9,93.9-93.9
		c18.8,0,35.8,5.1,51.2,15.4c17.9-48.7,64.8-83.7,119.4-83.7c70.8,0,128,57.2,128,128c0,4.3,0,7.7-0.9,11.9
		c40.1,11.1,69.1,46.9,69.1,90.5c0,52.1-41.8,93.9-93.9,93.9h-59.7c0,0-34.1,0-34.1,34.1C310.3,439.5,293.2,462.6,259.1,470.2"/>
</g>
<path d="M311.3,504c-2.6,0-4.3-1.7-4.3-4.3v-17.1c0-2.6,1.7-4.3,4.3-4.3s4.3,1.7,4.3,4.3v17.1C315.5,502.3,313.8,504,311.3,504z
	 M208.9,504c-2.6,0-4.3-1.7-4.3-4.3v-17.1c0-2.6,1.7-4.3,4.3-4.3s4.3,1.7,4.3,4.3v17.1C213.1,502.3,211.4,504,208.9,504z
	 M260.1,486.9c-2.6,0-4.3-1.7-4.3-4.3v-17.1c0-2.6,1.7-4.3,4.3-4.3c2.6,0,4.3,1.7,4.3,4.3v17.1C264.3,485.2,262.6,486.9,260.1,486.9
	z M157.7,469.9c-2.6,0-4.3-1.7-4.3-4.3v-17.1c0-29-29-29.9-29.9-29.9H63.8c-35,0-64-29-64-64s29-64,64-64c2.6,0,4.3,1.7,4.3,4.3
	s-1.7,4.3-4.3,4.3c-30.7,0-55.5,24.7-55.5,55.5s24.8,55.4,55.5,55.4h59.7c13.7,0,38.4,7.7,38.4,38.4v17.1
	C161.9,468.2,160.2,469.9,157.7,469.9z M311.3,452.8c-2.6,0-4.3-1.7-4.3-4.3c0-30.7,24.7-38.4,38.4-38.4h59.7
	c49.5,0,89.6-40.1,89.6-89.6c0-29-14.5-56.3-37.5-73.4c-1.7-1.7-2.6-4.3-0.9-6s4.3-2.6,6-0.9c26.5,18.8,41.8,48.6,41.8,80.2
	c0,53.8-44.4,98.1-98.1,98.1h-59.7c-0.9,0-29.9,0.9-29.9,29.9C315.5,451.1,313.8,452.8,311.3,452.8z M208.9,452.8
	c-2.6,0-4.3-1.7-4.3-4.3v-17.1c0-2.6,1.7-4.3,4.3-4.3s4.3,1.7,4.3,4.3v17.1C213.1,451.1,211.4,452.8,208.9,452.8z M260.1,435.7
	c-2.6,0-4.3-1.7-4.3-4.3v-17.1c0-2.6,1.7-4.3,4.3-4.3c2.6,0,4.3,1.7,4.3,4.3v17.1C264.3,434,262.6,435.7,260.1,435.7z M208.9,401.6
	c-2.6,0-4.3-1.7-4.3-4.3v-17.1c0-2.6,1.7-4.3,4.3-4.3s4.3,1.7,4.3,4.3v17.1C213.1,399.9,211.4,401.6,208.9,401.6z M39.9,273.6
	c-1.7,0-3.4-1.7-4.3-3.4c-0.9-6-1.7-11.9-1.7-17.9c0-53.8,44.4-98.1,98.1-98.1c27.3,0,52.1,11.1,70.8,30.7c1.7,1.7,1.7,4.3,0,6
	s-4.3,1.7-6,0c-17.1-17.9-40.1-28.2-64.9-28.2c-49.5,0-89.6,40.1-89.6,89.6c0,5.1,0.9,11.1,1.7,16.2C44.2,271,42.5,272.7,39.9,273.6
	L39.9,273.6z M426.5,256.5h-0.9c-2.6-0.9-3.4-2.6-2.6-5.1c2.6-10.2,4.3-21.3,4.3-33.3c0-68.3-55.5-123.7-123.7-123.7
	c-41,0-79.4,20.5-102.4,54.6c-1.7,1.7-4.3,2.6-6,0.9c-1.7-1.7-2.6-4.3-0.9-6C219,107.2,260,85,304.5,85
	c72.5,0,132.3,59.7,132.3,132.3c0,11.9-1.7,23.9-5.1,35C430,255.7,428.2,256.5,426.5,256.5z M74.9,239.5H74
	c-2.6-0.9-3.4-3.4-2.6-5.1c4.3-13.7,12.8-25.6,24.7-34.1c1.7-1.7,4.3-0.9,6,0.9c1.7,1.7,0.9,4.3-0.9,6C91,214,83.3,225.1,79.9,237.1
	C78.3,238.6,76.6,239.5,74.9,239.5z M396.6,222.4c-2.6,0-4.3-1.7-4.3-4.3c0-17.1-5.1-34.1-14.5-48.6c-1.7-1.7-0.9-4.3,0.9-6
	c1.7-1.7,4.3-0.9,6,0.9c10.2,16.2,16.2,34.1,16.2,53.8C401,220.7,399.2,222.4,396.6,222.4z"/>
</svg>
