<?xml version="1.0" encoding="utf-8"?>
<!-- Generator: Adobe Illustrator 25.2.0, SVG Export Plug-In . SVG Version: 6.00 Build 0)  -->
<svg version="1.1" id="Layer_1" xmlns="http://www.w3.org/2000/svg" xmlns:xlink="http://www.w3.org/1999/xlink" x="0px" y="0px"
	 viewBox="0 0 640 480" style="enable-background:new 0 0 640 480;" xml:space="preserve">
<style type="text/css">
	.st0{fill:#48484A;stroke:#000000;stroke-width:5;stroke-miterlimit:10;}
	.st1{fill:#B3B3B3;stroke:#000000;stroke-width:5;stroke-linejoin:round;stroke-miterlimit:10;}
</style>
<ellipse class="st0" cx="501.1" cy="158.7" rx="131.1" ry="128.5"/>
<path class="st1" d="M604.5,288c0-42-32.3-76.1-72.2-76.1c-6.3,0-12.3,0.8-18.1,2.4c0-0.8,0-1.6,0-2.4c0-84-64.6-152.1-144.4-152.1
	c-49.6,0-93.3,26.3-119.3,66.5c-13.2-6.1-27.8-9.4-43.1-9.4c-54.3,0-99.3,42.2-107.1,97.2c-31.7,8-55.3,38.1-55.3,73.9
	c0,42,32.3,76.1,72.2,76.1h433.1v-2.4C581.5,353.2,604.5,323.5,604.5,288z"/>
<polygon points="409.6,448.9 405.1,446.3 437.4,389.2 441.8,391.8 "/>
<polygon points="334.5,453 330,450.4 362.2,393.3 366.7,395.9 "/>
<polygon points="472,453 467.5,450.4 499.8,393.3 504.3,395.9 "/>
<polygon points="103.4,448.9 98.9,446.3 131.2,389.2 135.7,391.8 "/>
<polygon points="185.5,448.9 181,446.3 213.3,389.2 217.8,391.8 "/>
<polygon points="265.4,448.9 260.9,446.3 293.2,389.2 297.7,391.8 "/>
</svg>
