<?xml version="1.0" encoding="utf-8"?>
<!-- Generator: Adobe Illustrator 25.0.0, SVG Export Plug-In . SVG Version: 6.00 Build 0)  -->
<svg version="1.1" id="Layer_1" xmlns="http://www.w3.org/2000/svg" xmlns:xlink="http://www.w3.org/1999/xlink" x="0px" y="0px"
	 viewBox="0 0 504.3 504.3" style="enable-background:new 0 0 504.3 504.3;" xml:space="preserve">
<style type="text/css">
	.st0{fill:#686C6D;}
</style>
<path class="st0" d="M430.1,187.7c39.3,11.1,69.1,46.9,69.1,90.5c0,52.1-41.8,93.9-93.9,93.9H64c-33.3,0-59.7-26.5-59.7-59.7
	c0-28.2,19.6-51.2,45.2-58c-6.8-13.7-11.1-28.2-11.1-44.4c0-52.1,41.8-93.9,93.9-93.9c18.8,0,35.8,5.1,51.2,15.4
	c17.9-48.6,64.9-83.6,119.5-83.6c70.8,0,128,57.2,128,128C430.9,180.1,430.9,183.5,430.1,187.7"/>
<path d="M192,461.7c-0.9,0-0.9,0-1.7,0c-2.6-0.9-3.4-3.4-2.6-6l48.6-113.5h-61.4c-1.7,0-2.6-0.9-3.4-1.7c-0.9-0.9-0.9-2.6,0-4.3
	l51.2-119.5c0.9-2.6,3.4-3.4,6-2.6c2.6,0.9,3.4,3.4,2.6,6l-48.6,113.5h61.4c1.7,0,2.6,0.9,3.4,1.7c0.9,0.9,0.9,2.6,0,4.3
	l-51.2,119.5C195.4,460.8,193.7,461.7,192,461.7z M285.9,444.6c-0.9,0-1.7,0-2.6-0.9c-1.7-0.9-2.6-4.3-1.7-6l38.4-61.4h-43.5
	c-1.7,0-2.6-0.9-3.4-1.7c-0.9-0.9-0.9-2.6-0.9-4.3l25.6-68.3c0.9-2.6,3.4-3.4,5.1-2.6c2.6,0.9,3.4,3.4,2.6,5.1l-23,62.3h45.2
	c1.7,0,2.6,0.9,3.4,2.6s0.9,3.4,0,4.3L288.4,442C288.4,443.7,287.6,444.6,285.9,444.6z M405.3,376.3h-42.7c-2.6,0-4.3-1.7-4.3-4.3
	s1.7-4.3,4.3-4.3h42.7c49.5,0,89.6-40.1,89.6-89.6c0-29-14.5-56.3-37.5-73.4c-1.7-1.7-2.6-4.3-0.9-6s4.3-2.6,6-0.9
	c25.6,18.8,41.8,48.6,41.8,80.2C503.5,331.9,459.1,376.3,405.3,376.3z M192,376.3H64c-35,0-64-29-64-64s29-64,64-64
	c2.6,0,4.3,1.7,4.3,4.3s-1.7,4.3-4.3,4.3c-30.7,0-55.5,24.7-55.5,55.5s24.7,55.5,55.5,55.5h128c2.6,0,4.3,1.7,4.3,4.3
	S194.6,376.3,192,376.3z M40.1,231.3c-1.7,0-3.4-1.7-4.3-3.4c-0.9-6-1.7-11.9-1.7-17.9c0-53.8,44.4-98.1,98.1-98.1
	c27.3,0,52.1,11.1,70.8,30.7c1.7,1.7,1.7,4.3,0,6s-4.3,1.7-6,0c-17.1-17.9-40.1-28.2-64.9-28.2c-49.5,0-89.6,40.1-89.6,89.6
	c0,5.1,0.9,11.1,1.7,16.2C44.4,228.7,42.7,230.4,40.1,231.3L40.1,231.3z M426.7,214.2h-0.9c-2.6-0.9-3.4-2.6-2.6-5.1
	c2.6-11.1,4.3-22.2,4.3-33.3c0-68.3-55.5-123.7-123.7-123.7c-41,0-79.4,20.5-102.4,54.6c-1.7,1.7-4.3,2.6-6,0.9s-2.6-4.3-0.9-6
	c24.7-36.7,65.7-58.9,110.1-58.9c72.5,0,132.3,59.7,132.3,132.3c0,11.9-1.7,23.9-5.1,35C430.1,213.3,428.4,214.2,426.7,214.2z
	 M75.1,197.1h-0.9c-2.6-0.9-3.4-3.4-2.6-5.1c4.3-13.7,12.8-25.6,24.7-34.1c1.7-1.7,4.3-0.9,6,0.9c1.7,1.7,0.9,4.3-0.9,6
	c-10.2,6.8-17.9,17.9-21.3,29.9C78.5,196.3,76.8,197.1,75.1,197.1z M396.8,180.1c-2.6,0-4.3-1.7-4.3-4.3c0-17.1-5.1-34.1-14.5-48.6
	c-1.7-1.7-0.9-4.3,0.9-6c1.7-1.7,4.3-0.9,6,0.9c10.2,16.2,16.2,34.1,16.2,53.8C401.1,178.3,399.4,180.1,396.8,180.1z"/>
</svg>
