<?xml version="1.0" encoding="utf-8"?>
<!-- Generator: Adobe Illustrator 24.2.1, SVG Export Plug-In . SVG Version: 6.00 Build 0)  -->
<svg version="1.1" id="Layer_1" xmlns="http://www.w3.org/2000/svg" xmlns:xlink="http://www.w3.org/1999/xlink" x="0px" y="0px"
	 viewBox="0 0 504.3 504.3" style="enable-background:new 0 0 504.3 504.3;" xml:space="preserve">
<style type="text/css">
	.st0{fill:#ECF4F7;}
</style>
<path class="st0" d="M274.8,420.7c-0.9,0-1.7,0-2.6,0c-11.9,1.7-23.9,2.6-37.5,2.6c-59.7,0-110.9-17.1-110.9-17.1
	c0-34.1-34.1-34.1-34.1-34.1H64c-33.3,0-59.7-26.5-59.7-59.7c0-28.2,19.6-51.2,45.2-58c-6.8-13.7-11.1-28.2-11.1-44.4
	c0-52.1,41.8-93.9,93.9-93.9c18.8,0,35.8,5.1,51.2,15.4c17.9-48.6,64.9-83.6,119.5-83.6c70.8,0,128,57.2,128,128
	c0,4.3,0,7.7-0.9,11.9c39.3,11.1,69.1,46.9,69.1,90.5c0,52.1-41.8,93.9-93.9,93.9h-25.6c0,0-34.1,0-34.1,34.1
	C345.6,406.2,315.7,416.4,274.8,420.7"/>
<path d="M253.4,461.7c-0.9,0-1.7,0-1.7-0.9c-1.7-0.9-2.6-3.4-1.7-6l15.4-28.2h-30.7c-2.6,0-4.3-1.7-4.3-4.3s1.7-4.3,4.3-4.3h30.7
	L250,390c-0.9-1.7-0.9-4.3,1.7-6c1.7-0.9,4.3,0,6,1.7l15.4,27.3l15.4-27.3c0.9-1.7,3.4-2.6,6-1.7c1.7,0.9,2.6,3.4,1.7,6l-15.4,28.2
	h30.7c2.6,0,4.3,1.7,4.3,4.3s-1.7,4.3-4.3,4.3h-30.7l15.4,28.2c0.9,1.7,0,4.3-1.7,6c-1.7,0.9-4.3,0-6-1.7l-15.4-27.3l-15.4,27.3
	C256.9,460.8,255.1,461.7,253.4,461.7z M123.7,427.5c-2.6,0-4.3-1.7-4.3-4.3v-17.1c0-29-29-29.9-29.9-29.9H64c-35,0-64-29-64-64
	s29-64,64-64c2.6,0,4.3,1.7,4.3,4.3s-1.7,4.3-4.3,4.3c-30.7,0-55.5,24.7-55.5,55.5s24.7,55.5,55.5,55.5h25.6
	c13.7,0,38.4,7.7,38.4,38.4v17.1C128,425.8,126.3,427.5,123.7,427.5z M345.6,410.5c-2.6,0-4.3-1.7-4.3-4.3
	c0-30.7,24.7-38.4,38.4-38.4h25.6c49.5,0,89.6-40.1,89.6-89.6c0-29-14.5-56.3-37.5-73.4c-1.7-1.7-2.6-4.3-0.9-6s4.3-2.6,6-0.9
	c26.5,18.8,41.8,48.6,41.8,80.2c0,53.8-44.4,98.1-98.1,98.1h-25.6c-0.9,0-29.9,0.9-29.9,29.9C349.9,408.7,348.2,410.5,345.6,410.5z
	 M168.1,393.4c-0.9,0-1.7,0-1.7-0.9c-1.7-0.9-2.6-3.4-1.7-6l15.4-28.2h-30.7c-2.6,0-4.3-1.7-4.3-4.3s1.7-4.3,4.3-4.3h30.7
	l-15.4-28.2c-0.9-1.7-0.9-4.3,1.7-6c1.7-0.9,4.3,0,6,1.7l15.4,27.3l15.4-27.3c0.9-1.7,3.4-2.6,6-1.7c1.7,0.9,2.6,3.4,1.7,6
	l-15.4,28.2h30.7c2.6,0,4.3,1.7,4.3,4.3s-1.7,4.3-4.3,4.3h-30.7l15.4,28.2c0.9,1.7,0.9,4.3-1.7,6c-1.7,0.9-4.3,0.9-6-1.7l-15.4-27.3
	l-15.4,27.3C171.5,392.5,169.8,393.4,168.1,393.4z M40.1,231.3c-1.7,0-3.4-1.7-4.3-3.4c-0.9-6-1.7-11.9-1.7-17.9
	c0-53.8,44.4-98.1,98.1-98.1c27.3,0,52.1,11.1,70.8,30.7c1.7,1.7,1.7,4.3,0,6c-1.7,1.7-4.3,1.7-6,0c-17.1-17.9-40.1-28.2-64.9-28.2
	c-49.5,0-89.6,40.1-89.6,89.6c0,5.1,0.9,11.1,1.7,16.2C44.4,228.7,42.7,230.4,40.1,231.3L40.1,231.3z M426.7,214.2h-0.9
	c-2.6-0.9-3.4-2.6-2.6-5.1c2.6-10.2,4.3-21.3,4.3-33.3c0-68.3-55.5-123.7-123.7-123.7c-41,0-79.4,20.5-102.4,54.6
	c-1.7,1.7-4.3,2.6-6,0.9c-1.7-1.7-2.6-4.3-0.9-6c24.7-36.7,65.7-58.9,110.1-58.9c72.5,0,132.3,59.7,132.3,132.3
	c0,11.9-1.7,23.9-5.1,35C430.1,213.3,428.4,214.2,426.7,214.2z M75.1,197.1h-0.9c-2.6-0.9-3.4-3.4-2.6-5.1
	c4.3-13.7,12.8-25.6,24.7-34.1c1.7-1.7,4.3-0.9,6,0.9c1.7,1.7,0.9,4.3-0.9,6c-10.2,6.8-17.9,17.9-21.3,29.9
	C78.5,196.3,76.8,197.1,75.1,197.1z M396.8,180.1c-2.6,0-4.3-1.7-4.3-4.3c0-17.1-5.1-34.1-14.5-48.6c-1.7-1.7-0.9-4.3,0.9-6
	c1.7-1.7,4.3-0.9,6,0.9c10.2,16.2,16.2,34.1,16.2,53.8C401.1,178.3,399.4,180.1,396.8,180.1z"/>
</svg>
