<?xml version="1.0" encoding="utf-8"?>
<!-- Generator: Adobe Illustrator 25.2.0, SVG Export Plug-In . SVG Version: 6.00 Build 0)  -->
<svg version="1.1" id="Layer_1" xmlns="http://www.w3.org/2000/svg" xmlns:xlink="http://www.w3.org/1999/xlink" x="0px" y="0px"
	 viewBox="0 0 800 600" style="enable-background:new 0 0 800 600;" xml:space="preserve">
<style type="text/css">
	.st0{fill:#F8FFFF;}
	.st1{fill:none;stroke:#000000;stroke-width:6;stroke-miterlimit:10;}
</style>
<ellipse class="st0" cx="431.9" cy="117" rx="166.5" ry="117"/>
<ellipse class="st0" cx="373.5" cy="256.5" rx="256.5" ry="157.5"/>
<ellipse class="st0" cx="454.5" cy="418.5" rx="256.5" ry="157.5"/>
<line class="st1" x1="315" y1="72" x2="504" y2="72"/>
<line class="st1" x1="252" y1="504" x2="576" y2="504"/>
<line class="st1" x1="144" y1="288" x2="279" y2="288"/>
<line class="st1" x1="315" y1="288" x2="666" y2="288"/>
<line class="st1" x1="153" y1="216" x2="513" y2="216"/>
<line class="st1" x1="558" y1="216" x2="621" y2="216"/>
<line class="st1" x1="261" y1="144" x2="414" y2="144"/>
<line class="st1" x1="459" y1="144" x2="612" y2="144"/>
<line class="st1" x1="189" y1="360" x2="423" y2="360"/>
<line class="st1" x1="486" y1="360" x2="630" y2="360"/>
<line class="st1" x1="279" y1="432" x2="378" y2="432"/>
<line class="st1" x1="414" y1="432" x2="594" y2="432"/>
</svg>
