<?xml version="1.0" encoding="utf-8"?>
<!-- Generator: Adobe Illustrator 24.2.1, SVG Export Plug-In . SVG Version: 6.00 Build 0)  -->
<svg version="1.1" id="Layer_1" xmlns="http://www.w3.org/2000/svg" xmlns:xlink="http://www.w3.org/1999/xlink" x="0px" y="0px"
	 viewBox="0 0 503.5 503.5" style="enable-background:new 0 0 503.5 503.5;" xml:space="preserve">
<style type="text/css">
	.st0{fill:#ECF4F7;}
	.st1{fill:#000205;}
</style>
<path class="st0" d="M192,72.5c-51.2,0-102.4,12.8-102.4,51.2s-68.3,59.7-68.3,102.4s81.1,81.1,81.1,102.4S64,341.3,64,379.7
	s59.7,51.2,85.3,51.2s162.1,0,196.3,0s59.7-21.3,59.7-51.2s-34.1-29.9-34.1-51.2s115.2-42.7,115.2-102.4
	c0-68.3-76.8-153.6-140.8-153.6S243.2,72.5,192,72.5z"/>
<path class="st1" d="M362.7,435.2H140.8c-2.6,0-4.3-1.7-4.3-4.3s1.7-4.3,4.3-4.3h221.9c2.6,0,4.3,1.7,4.3,4.3
	C366.9,433.5,365.2,435.2,362.7,435.2z M413.9,384H243.2c-2.6,0-4.3-1.7-4.3-4.3s1.7-4.3,4.3-4.3h170.7c2.6,0,4.3,1.7,4.3,4.3
	C418.1,382.3,416.4,384,413.9,384z M209.1,384H55.5c-2.6,0-4.3-1.7-4.3-4.3s1.7-4.3,4.3-4.3h153.6c2.6,0,4.3,1.7,4.3,4.3
	C213.3,382.3,211.6,384,209.1,384z M379.7,332.8H192c-2.6,0-4.3-1.7-4.3-4.3s1.7-4.3,4.3-4.3h187.7c2.6,0,4.3,1.7,4.3,4.3
	S382.3,332.8,379.7,332.8z M157.9,332.8H89.6c-2.6,0-4.3-1.7-4.3-4.3s1.7-4.3,4.3-4.3h68.3c2.6,0,4.3,1.7,4.3,4.3
	C162.1,331.1,160.4,332.8,157.9,332.8z M465.1,281.6H277.3c-2.6,0-4.3-1.7-4.3-4.3s1.7-4.3,4.3-4.3h187.7c2.6,0,4.3,1.7,4.3,4.3
	S467.6,281.6,465.1,281.6z M243.2,281.6H55.5c-2.6,0-4.3-1.7-4.3-4.3s1.7-4.3,4.3-4.3h187.7c2.6,0,4.3,1.7,4.3,4.3
	S245.8,281.6,243.2,281.6z M499.2,230.4H140.8c-2.6,0-4.3-1.7-4.3-4.3s1.7-4.3,4.3-4.3h358.4c2.6,0,4.3,1.7,4.3,4.3
	S501.8,230.4,499.2,230.4z M106.7,230.4H4.3c-2.6,0-4.3-1.7-4.3-4.3s1.7-4.3,4.3-4.3h102.4c2.6,0,4.3,1.7,4.3,4.3
	S109.2,230.4,106.7,230.4z M413.9,179.2h-68.3c-2.6,0-4.3-1.7-4.3-4.3s1.7-4.3,4.3-4.3h68.3c2.6,0,4.3,1.7,4.3,4.3
	C418.1,177.5,416.4,179.2,413.9,179.2z M311.5,179.2H38.4c-2.6,0-4.3-1.7-4.3-4.3s1.7-4.3,4.3-4.3h273.1c2.6,0,4.3,1.7,4.3,4.3
	C315.7,177.5,314,179.2,311.5,179.2z M430.9,128H243.2c-2.6,0-4.3-1.7-4.3-4.3s1.7-4.3,4.3-4.3h187.7c2.6,0,4.3,1.7,4.3,4.3
	C435.2,126.3,433.5,128,430.9,128z M209.1,128H89.6c-2.6,0-4.3-1.7-4.3-4.3s1.7-4.3,4.3-4.3h119.5c2.6,0,4.3,1.7,4.3,4.3
	C213.3,126.3,211.6,128,209.1,128z M396.8,76.8H174.9c-2.6,0-4.3-1.7-4.3-4.3s1.7-4.3,4.3-4.3h221.9c2.6,0,4.3,1.7,4.3,4.3
	S399.4,76.8,396.8,76.8z"/>
</svg>
